# xmcd
#
# Track frame offsets:
#	150
#	23144
#	46020
#	60748
#	77192
#	93432
#	109964
#	128077
#	143520
#	172890
#	189476
#	213275
#	234725
#	252074
#
# Disc length: 3577 seconds
#
# Revision: 0
# Processed by: cddbd v1.5.1PL2 Copyright (c) Steve Scherf et al.
# Submitted via: dBpowerAMP V4.0
#
DISCID=b30df70e
DTITLE=R.L. Burnside - Wish I Was In Heaven Sitting Down
DYEAR=2000
DGENRE=Blues
TTITLE0=Hard Time Killing Floor (Skip James)
TTITLE1=Got Messed Up (Andy Kaulkin)
TTITLE2=Miss Maybelle (R.L. Burnside)
TTITLE3=Wish I Was In Heaven Sitting Down (trad.)
TTITLE4=Too Many Ups (R.L. Burnside, Andy Kaulkin)
TTITLE5=Nothin' Man (David Andrews)
TTITLE6=See What My Buddy Done (R.L. Burnside)
TTITLE7=My Eyes Keep Me In Trouble (R.L. Burnside)
TTITLE8=Bad Luck City (R.L. Burnside, J. Puckett, J. Lewis)
TTITLE9=Chain of Fools (Don Covay)
TTITLE10=R.L.'s Story (R.L. Burnside, Antony Genn)
TTITLE11=Robert Belfour - Black Mattie (Junior Kimbrough)
TTITLE12=Paul Jones - Pucker Up Buttercup (Paul Jones)
TTITLE13=Kenny Brown - Laugh To Keep From Cryin (Kenny Brown)
EXTD=
EXTT0=
EXTT1=
EXTT2=
EXTT3=
EXTT4=
EXTT5=
EXTT6=
EXTT7=
EXTT8=
EXTT9=
EXTT10=
EXTT11=
EXTT12=
EXTT13=
PLAYORDER=
